<?xml version="1.0" standalone="no"?>
<!DOCTYPE svg PUBLIC "-//W3C//DTD SVG 20010904//EN"
 "http://www.w3.org/TR/2001/REC-SVG-20010904/DTD/svg10.dtd">
<svg version="1.0" xmlns="http://www.w3.org/2000/svg"
 width="1920.000000pt" height="1920.000000pt" viewBox="0 0 1920.000000 1920.000000"
 preserveAspectRatio="xMidYMid meet">
<metadata>
Created by potrace 1.14, written by Peter Selinger 2001-2017
</metadata>
<g transform="translate(0.000000,1920.000000) scale(0.100000,-0.100000)"
fill="#000000" stroke="none">
<path d="M3195 19191 c-3 -5 -1 -12 5 -16 5 -3 10 -12 10 -18 0 -8 -3 -8 -9 1
-6 10 -10 9 -14 -7 -3 -13 2 -28 11 -38 16 -16 16 -16 -2 -10 -14 6 -17 4 -12
-8 3 -9 2 -13 -4 -10 -6 3 -10 -5 -10 -19 0 -14 -5 -28 -10 -31 -8 -5 -7 -11
1 -21 10 -12 9 -13 -4 -9 -8 4 -18 1 -23 -6 -4 -8 -3 -10 4 -5 8 5 11 -5 9
-32 -1 -25 -6 -38 -14 -35 -6 3 -16 -5 -22 -16 -10 -17 -9 -20 4 -15 8 3 12
11 8 18 -3 6 0 5 8 -2 12 -11 12 -14 -1 -22 -8 -5 -10 -10 -5 -10 6 0 3 -6 -5
-13 -17 -14 -22 -57 -7 -57 6 0 2 -7 -9 -16 -19 -15 -19 -16 1 -10 18 5 17 4
-4 -14 -21 -18 -16 -26 13 -21 5 1 4 -4 -3 -12 -6 -8 -10 -21 -9 -28 2 -9 -5
-13 -17 -12 -11 1 -14 0 -7 -3 6 -3 12 -13 12 -21 0 -12 -3 -13 -14 -4 -11 9
-16 9 -22 0 -4 -7 -3 -10 2 -7 10 7 27 -11 32 -32 3 -11 -2 -10 -16 3 -15 14
-22 15 -28 6 -4 -7 -3 -10 4 -5 16 10 25 -13 12 -29 -12 -15 -16 -158 -4 -176
3 -5 -2 -6 -10 -3 -16 6 -20 -3 -17 -41 2 -20 1 -20 -14 -1 -8 11 -15 15 -15
9 0 -5 10 -18 22 -29 12 -10 18 -13 14 -6 -4 6 -2 12 4 12 7 0 10 -6 7 -12 -2
-7 -17 -12 -33 -11 -16 0 -23 -1 -16 -4 6 -2 12 -13 12 -23 0 -10 -6 -21 -12
-23 -10 -4 -10 -6 0 -6 19 -1 14 -31 -5 -32 -11 0 -13 -3 -5 -6 6 -2 10 -9 6
-14 -3 -5 -1 -9 5 -9 5 0 12 6 14 13 3 6 6 7 6 1 1 -5 -8 -20 -19 -32 -21 -22
-27 -37 -11 -27 5 3 13 0 17 -6 4 -8 3 -9 -4 -5 -11 6 -14 0 -11 -21 1 -5 5
-7 11 -5 5 1 7 -2 3 -7 -3 -6 -13 -7 -22 -4 -12 5 -14 3 -8 -8 7 -11 6 -12 -6
-2 -13 10 -16 10 -16 -2 0 -8 5 -15 10 -15 5 0 6 -7 3 -16 -4 -9 -1 -24 6 -33
8 -9 3 -8 -11 4 l-24 20 10 -20 c6 -11 8 -26 5 -34 -3 -9 0 -11 8 -6 9 5 11 4
6 -4 -4 -6 -13 -8 -19 -4 -8 4 -7 1 1 -9 14 -18 6 -27 -19 -23 -9 2 -16 -3
-16 -10 0 -7 8 -10 18 -8 9 3 20 0 23 -6 5 -7 1 -8 -10 -4 -14 5 -16 2 -12
-15 3 -12 3 -21 -1 -20 -19 2 -24 -3 -11 -12 13 -8 13 -10 -1 -10 -9 0 -20 -7
-23 -16 -6 -15 -4 -15 11 -3 14 11 15 12 9 0 -5 -8 -3 -17 5 -23 11 -7 9 -9
-7 -5 -19 4 -20 2 -10 -18 6 -13 14 -21 17 -19 9 5 6 -17 -4 -33 -5 -7 -6 -17
-2 -22 3 -5 0 -13 -6 -17 -8 -5 -9 -3 -4 6 5 8 4 11 -3 7 -14 -9 -9 -36 9 -48
12 -7 12 -9 0 -9 -8 0 -11 -3 -8 -7 4 -3 1 -13 -6 -21 -10 -13 -8 -14 13 -8
17 5 21 4 11 -2 -7 -5 -11 -14 -7 -20 3 -5 -1 -15 -9 -22 -17 -14 -20 -30 -4
-30 5 0 7 5 3 12 -5 7 -3 8 6 3 10 -6 9 -11 -5 -22 -11 -7 -14 -13 -7 -13 7 0
10 -12 8 -32 -3 -23 -9 -33 -20 -32 -9 1 -13 -2 -10 -7 3 -5 13 -9 22 -9 13 0
14 -2 3 -9 -11 -7 -11 -9 0 -13 11 -4 10 -9 -4 -26 -11 -11 -14 -23 -9 -26 11
-7 11 -24 -1 -43 -4 -6 -3 -14 3 -18 5 -3 10 -11 10 -17 0 -6 -7 -5 -17 3 -17
13 -17 13 -3 -5 11 -14 12 -20 3 -23 -9 -3 -7 -13 6 -36 18 -33 24 -70 10 -61
-5 2 -6 11 -2 19 3 10 -1 15 -13 14 -12 0 -14 -3 -6 -6 10 -4 10 -8 0 -21 -8
-9 -8 -13 -2 -9 7 4 14 0 18 -8 3 -8 1 -15 -5 -15 -6 0 -6 -7 1 -20 9 -16 8
-20 -7 -20 -15 0 -15 -2 3 -15 18 -13 18 -14 1 -15 -10 0 -15 -5 -12 -10 4 -6
10 -8 14 -6 3 3 7 -4 7 -15 0 -10 -4 -19 -9 -19 -4 0 -5 -5 -2 -10 4 -6 1 -18
-7 -27 -11 -15 -11 -16 7 -9 11 4 16 4 12 0 -4 -4 -1 -14 6 -22 9 -13 9 -14 0
-8 -8 4 -13 2 -13 -4 0 -6 -4 -9 -8 -6 -5 3 -9 -1 -9 -9 0 -8 2 -13 5 -10 3 2
14 -7 24 -21 11 -14 18 -28 14 -31 -3 -4 -6 -1 -6 5 0 6 -7 9 -15 6 -14 -6
-13 -8 2 -19 10 -7 22 -11 27 -8 5 4 6 1 2 -6 -4 -6 -11 -9 -16 -6 -5 3 -11 1
-15 -5 -3 -5 3 -10 14 -10 12 0 21 -5 21 -11 0 -5 -4 -7 -10 -4 -5 3 -10 1
-10 -5 0 -6 -5 -8 -12 -4 -6 4 -8 3 -5 -4 4 -5 17 -8 30 -5 22 5 22 5 2 -11
-11 -10 -14 -15 -8 -11 9 4 11 1 7 -9 -3 -9 -11 -13 -17 -9 -6 3 -7 1 -3 -6 4
-6 12 -9 17 -6 5 4 9 -1 9 -10 0 -10 -5 -14 -12 -9 -10 5 -10 3 0 -7 11 -12
14 -12 23 1 9 12 10 12 5 -4 -5 -13 -2 -17 8 -13 8 3 13 0 12 -6 -4 -19 -17
-50 -28 -72 l-11 -20 23 20 23 20 -12 -23 c-7 -12 -9 -27 -6 -32 3 -6 2 -10
-4 -10 -5 0 -8 -8 -7 -17 2 -10 -2 -21 -8 -25 -8 -5 -7 -8 2 -8 7 0 10 -5 6
-12 -4 -7 -3 -8 4 -4 7 4 12 3 12 -3 0 -5 -8 -15 -17 -20 -10 -6 -13 -11 -6
-11 7 0 -11 -21 -40 -47 -29 -27 -54 -51 -57 -55 -3 -4 -64 -67 -135 -140
-201 -206 -459 -496 -575 -648 -19 -25 -37 -47 -41 -50 -5 -4 -134 -173 -229
-300 -64 -84 -222 -315 -313 -456 -84 -129 -80 -123 -150 -239 -158 -260 -280
-483 -395 -717 -47 -96 -71 -136 -81 -132 -11 3 -11 1 -2 -10 9 -11 8 -15 -4
-20 -9 -3 -13 -2 -10 4 3 6 -1 7 -9 4 -9 -3 -13 -10 -10 -15 9 -15 -6 -10 -23
6 -12 12 -18 13 -29 4 -8 -6 -11 -16 -7 -22 4 -6 0 -8 -10 -4 -9 3 -21 -1 -29
-11 -11 -13 -11 -14 1 -7 9 5 12 4 8 -3 -9 -14 -40 -9 -45 8 -3 8 0 10 8 5 9
-5 11 -4 6 4 -10 16 -27 3 -24 -17 2 -12 -4 -17 -20 -16 -19 1 -20 -1 -10 -14
11 -13 11 -14 0 -8 -7 4 -19 2 -27 -4 -8 -7 -15 -9 -15 -6 0 4 -10 1 -22 -5
-22 -12 -22 -11 -5 8 14 16 14 20 2 20 -8 0 -12 -4 -9 -8 2 -4 -6 -11 -18 -15
-13 -4 -26 -11 -30 -17 -4 -6 -25 -10 -48 -9 -27 2 -39 -1 -35 -8 3 -6 11 -7
17 -4 7 4 8 2 4 -4 -9 -15 -12 -15 -30 4 -15 14 -16 14 -17 -3 0 -16 -1 -16
-9 2 -8 18 -9 18 -9 2 -1 -11 -5 -15 -13 -11 -8 5 -9 0 -6 -14 4 -12 2 -25 -3
-28 -5 -3 -9 -2 -8 3 1 4 1 19 0 33 l-2 25 -13 -23 c-12 -22 -14 -23 -29 -7
-10 9 -17 13 -17 8 0 -5 6 -15 13 -22 10 -10 9 -11 -4 -6 -10 4 -20 1 -25 -6
-5 -8 -3 -10 7 -5 8 4 6 1 -5 -8 -22 -17 -62 -4 -50 17 4 7 3 8 -2 4 -9 -8
-10 -12 -13 -38 0 -6 -8 -9 -16 -5 -20 7 -19 1 2 -20 16 -16 16 -16 -4 -10
-12 4 -24 2 -28 -4 -4 -7 -13 -7 -27 1 -17 9 -20 9 -16 -3 4 -10 -1 -14 -17
-14 -13 0 -22 3 -19 7 2 4 -4 6 -13 5 -9 -2 -19 -8 -21 -14 -2 -7 -11 -8 -27
-2 -20 8 -23 6 -19 -8 5 -14 3 -13 -10 2 -18 22 -21 14 -6 -15 6 -11 7 -19 3
-18 -4 1 -10 0 -13 -1 -24 -9 -41 -7 -36 5 3 9 0 12 -9 9 -12 -5 -14 -100 -14
-589 0 -341 3 -586 9 -590 5 -3 12 0 16 6 4 8 3 9 -4 5 -7 -4 -12 -2 -12 4 0
13 43 3 48 -11 2 -5 17 -9 33 -9 18 0 28 -4 24 -10 -3 -5 -2 -10 3 -10 6 0 13
7 16 16 5 13 9 14 21 4 8 -7 15 -9 15 -5 0 4 14 -5 31 -19 21 -18 38 -25 53
-21 18 5 18 4 -4 -10 -23 -15 -23 -15 -2 -10 13 4 22 2 22 -4 0 -6 9 -11 21
-11 13 0 18 4 13 13 -5 7 -1 7 12 -3 10 -8 20 -15 22 -16 3 -2 -10 -58 -28
-124 -6 -19 -24 -91 -41 -160 -16 -69 -31 -132 -33 -140 -8 -32 -86 -425 -91
-454 -14 -98 -26 -171 -30 -190 -2 -11 -7 -38 -10 -58 -3 -21 -7 -53 -10 -70
-17 -118 -31 -231 -41 -333 -4 -44 -8 -82 -9 -85 -1 -5 -14 -152 -21 -245 -25
-319 -24 -1174 0 -1365 2 -14 7 -72 11 -130 4 -58 8 -112 10 -120 1 -8 6 -44
9 -80 6 -52 25 -210 40 -325 2 -11 6 -45 10 -75 4 -30 11 -77 16 -105 5 -27
14 -77 20 -110 5 -33 17 -96 26 -140 9 -44 17 -91 19 -105 5 -37 42 -210 65
-303 11 -45 22 -92 24 -104 7 -34 75 -290 97 -368 25 -85 108 -354 116 -375 3
-8 31 -89 63 -180 73 -206 88 -247 104 -285 8 -16 37 -88 66 -160 54 -131 64
-155 139 -323 86 -193 265 -546 360 -712 18 -30 35 -63 38 -72 3 -10 9 -18 14
-18 5 0 9 -4 9 -10 0 -5 38 -73 85 -151 47 -78 85 -145 85 -150 0 -5 5 -9 10
-9 6 0 10 -4 10 -9 0 -8 246 -381 320 -485 110 -155 419 -548 535 -680 202
-229 275 -308 494 -526 124 -124 251 -248 282 -275 144 -129 213 -191 223
-200 25 -23 246 -205 311 -255 39 -30 72 -57 75 -60 3 -3 61 -47 130 -98 69
-51 133 -99 142 -107 9 -7 29 -22 45 -32 15 -9 30 -20 33 -23 3 -4 32 -24 65
-45 33 -22 62 -42 65 -45 13 -14 271 -180 280 -180 5 0 10 -4 10 -10 0 -5 7
-10 15 -10 8 0 15 -4 15 -10 0 -5 4 -10 9 -10 6 0 53 -27 105 -60 53 -33 100
-60 106 -60 5 0 10 -4 10 -8 0 -4 12 -13 28 -19 15 -7 47 -24 72 -39 25 -15
79 -45 120 -67 41 -22 80 -44 85 -48 13 -10 453 -229 515 -257 57 -25 128 -57
205 -92 89 -40 395 -164 510 -206 147 -54 621 -210 670 -220 6 -1 93 -25 195
-52 195 -52 263 -68 450 -109 169 -37 484 -94 600 -108 30 -4 64 -9 75 -12 35
-7 331 -41 420 -48 33 -3 78 -7 100 -10 22 -2 87 -7 145 -10 58 -4 113 -9 123
-11 10 -3 201 -7 425 -8 446 -3 671 4 932 29 30 3 80 7 110 10 70 6 236 24
275 30 17 2 84 11 150 20 246 33 598 100 851 160 94 22 344 85 369 93 11 3 22
6 25 7 11 2 130 38 210 63 47 14 87 27 90 27 3 1 12 4 20 7 8 4 69 24 135 46
222 75 360 124 373 134 8 7 12 6 12 -3 0 -11 2 -11 10 1 5 8 10 11 10 6 0 -5
7 -3 16 5 11 9 17 10 23 1 8 -13 51 -12 51 2 0 5 3 6 6 3 4 -4 1 -14 -7 -24
-8 -9 -9 -14 -3 -10 21 12 84 16 90 5 5 -7 2 -8 -7 -3 -8 5 -11 4 -6 -1 5 -5
16 -9 25 -9 9 0 16 -6 14 -14 -3 -12 0 -12 12 -2 8 7 21 9 28 5 10 -5 11 -4 0
7 -19 20 -14 28 13 23 14 -2 24 0 23 5 -2 5 2 9 7 9 6 0 9 -4 8 -9 -5 -16 16
-10 27 9 9 13 10 13 7 1 -3 -9 1 -16 9 -16 7 0 11 4 9 8 -6 9 21 20 29 12 3
-4 2 -11 -4 -17 -6 -8 -3 -12 11 -12 11 0 18 5 15 11 -3 9 32 13 42 5 1 -2 8
-3 15 -4 6 -1 11 -8 9 -15 -2 -11 3 -10 22 2 14 9 32 14 40 11 20 -8 21 -21 1
-21 -8 0 -12 4 -9 9 3 4 0 8 -6 8 -17 0 -6 -23 12 -26 8 -1 26 -5 38 -9 17 -5
21 -4 15 6 -6 11 -5 12 6 2 16 -16 33 -17 23 -1 -4 7 -3 8 4 4 7 -4 12 -15 13
-24 0 -11 3 -12 6 -4 2 6 9 12 14 12 6 0 7 -6 3 -12 -6 -10 -5 -10 7 -1 9 7
25 11 37 8 12 -2 24 1 27 6 12 19 25 -2 14 -22 -6 -12 -8 -23 -6 -26 3 -2 10
5 17 16 11 22 30 28 30 10 0 -5 -5 -7 -12 -3 -7 4 -8 3 -4 -5 4 -6 11 -9 16
-6 4 3 11 -1 13 -7 4 -10 6 -10 6 0 1 16 20 15 55 -3 23 -12 26 -12 17 -1 -9
11 -6 15 13 18 23 5 24 3 14 -16 -11 -21 -11 -21 11 -2 11 11 21 14 21 8 0 -7
5 -12 11 -12 5 0 8 3 6 7 -3 5 6 9 20 10 19 1 22 -1 12 -8 -10 -6 -4 -9 19 -9
19 0 31 -4 27 -10 -4 -6 1 -7 11 -3 14 5 13 8 -7 19 -13 7 -20 13 -16 14 5 0
17 -5 28 -10 14 -8 19 -7 19 2 0 8 3 9 8 3 8 -11 27 -18 54 -19 13 0 16 -7 13
-23 -2 -13 0 -21 6 -18 5 4 7 11 4 16 -4 5 1 9 10 9 10 0 13 -5 9 -13 -4 -6
-4 -9 1 -5 4 4 15 2 23 -5 10 -8 13 -8 9 -1 -4 7 0 15 9 18 23 9 28 7 16 -7
-8 -9 0 -11 35 -8 32 2 43 0 39 -8 -4 -6 -3 -11 2 -11 6 0 12 7 16 15 7 19 36
8 36 -13 0 -13 -3 -12 -15 4 -14 18 -14 18 -8 -3 6 -27 18 -29 32 -5 8 14 11
14 12 2 1 -8 1 -18 0 -22 0 -4 7 -4 16 -1 12 5 14 3 8 -8 -5 -8 0 -6 12 4 19
17 22 17 37 2 15 -15 16 -15 16 2 0 15 2 16 10 3 8 -12 10 -12 16 3 6 17 7 17
19 0 8 -10 17 -18 22 -18 4 -1 19 -6 33 -13 22 -12 23 -11 8 1 -10 8 -14 18
-10 22 4 5 1 5 -7 0 -10 -6 -12 -4 -6 4 5 9 11 9 17 3 6 -6 17 -8 24 -5 8 3
14 0 14 -7 0 -6 -5 -8 -12 -4 -8 5 -7 1 2 -10 13 -17 14 -17 20 0 8 23 36 26
52 6 10 -12 10 -14 1 -8 -8 4 -13 2 -13 -4 0 -7 7 -10 15 -6 8 3 21 -1 28 -8
11 -12 15 -11 25 5 13 21 32 26 32 8 0 -5 -4 -7 -10 -4 -5 3 -10 -1 -10 -11 0
-13 3 -14 13 -5 8 6 18 7 22 3 5 -4 5 -2 2 5 -5 7 -1 10 10 9 9 -2 19 -8 21
-14 2 -7 8 -12 13 -12 6 0 8 4 5 8 -2 4 10 8 28 8 28 0 32 -3 28 -20 -3 -12
-1 -17 6 -12 6 4 24 -1 39 -11 l28 -17 -20 24 -20 25 20 -15 c11 -8 26 -22 33
-30 12 -13 13 -12 7 5 -5 16 -4 18 6 8 17 -17 56 -17 63 0 3 6 3 1 0 -13 -6
-24 -6 -24 13 -8 11 10 24 18 29 18 5 0 1 -5 -8 -11 -10 -5 -18 -15 -18 -20 0
-6 4 -8 9 -5 5 4 11 3 14 -1 2 -5 2 -3 1 4 -2 6 3 14 11 17 9 3 12 -1 10 -14
-2 -12 2 -17 13 -15 9 1 20 -3 25 -9 5 -7 12 -5 22 8 8 11 15 15 15 9 0 -6 7
-14 16 -17 8 -3 12 -2 9 3 -3 5 -1 13 5 16 6 4 10 3 9 -2 -3 -18 1 -36 8 -30
3 4 15 -1 26 -10 11 -10 17 -12 13 -5 -4 6 -2 12 4 12 6 0 8 5 4 13 -5 8 -2 8
9 -2 18 -15 23 -26 7 -16 -5 3 -10 2 -10 -3 0 -6 7 -13 16 -16 8 -3 12 -2 9 3
-3 5 -1 12 5 16 5 3 10 -1 10 -10 0 -13 4 -14 23 -4 21 12 21 11 7 -6 -8 -10
-10 -16 -4 -12 7 4 17 0 24 -8 12 -14 15 -14 30 0 14 12 20 13 26 4 4 -7 3
-10 -3 -6 -6 4 -13 1 -16 -6 -6 -17 53 -14 63 3 5 8 9 7 13 -5 4 -9 3 -13 -2
-10 -5 3 -12 1 -15 -3 -3 -5 11 -8 31 -6 44 3 65 -4 56 -19 -4 -6 0 -8 10 -4
12 4 17 1 18 -11 0 -10 3 -12 6 -4 7 19 23 14 16 -6 -5 -14 -3 -13 10 3 15 19
16 19 36 1 11 -10 18 -22 16 -26 -2 -4 8 -6 23 -4 36 4 63 -17 57 -45 -3 -15
0 -19 8 -14 18 11 38 12 31 2 -3 -5 -11 -6 -17 -3 -7 4 -9 3 -4 -1 9 -10 48
-15 42 -5 -2 3 7 6 20 6 14 0 22 -2 20 -4 -2 -2 3 -11 11 -19 8 -9 13 -22 9
-31 -4 -12 -3 -12 9 -3 11 9 16 9 22 0 4 -8 3 -9 -4 -5 -7 4 -12 3 -12 -2 0
-6 7 -13 16 -16 8 -3 589 -6 1290 -6 l1275 0 -12 23 c-11 20 -11 21 5 8 15
-13 16 -12 6 14 -9 25 -9 27 5 15 13 -11 14 -10 9 5 -5 13 -4 16 4 11 8 -5 10
-1 5 11 -6 16 -5 16 10 4 15 -12 17 -12 11 3 -3 9 -1 23 6 31 7 8 8 20 4 27
-12 19 -13 38 -3 38 6 0 7 6 3 13 -4 6 -4 9 1 5 17 -15 41 11 39 41 -1 17 2
28 7 25 5 -3 7 -10 4 -15 -4 -5 -1 -9 5 -9 6 0 10 6 9 12 -3 28 1 39 14 32 9
-6 9 -5 0 8 -7 8 -10 18 -7 21 4 3 -6 4 -22 2 -28 -4 -28 -4 -6 7 19 10 23 18
20 45 -3 22 0 32 7 29 7 -2 12 2 12 10 0 7 -3 11 -6 10 -3 -2 -6 14 -6 35 -1
31 2 38 15 34 8 -2 5 3 -8 12 -21 15 -21 17 -6 34 15 17 15 19 0 34 -19 19
-22 32 -3 17 9 -8 12 -4 13 14 2 21 0 23 -14 12 -9 -8 -13 -8 -9 -2 4 7 0 15
-9 18 -13 5 -14 9 -3 22 7 8 8 14 3 13 -20 -3 -35 2 -29 10 3 5 1 12 -4 16 -6
3 -4 19 4 40 13 29 13 36 0 49 -13 13 -13 15 3 19 16 4 16 5 0 6 -10 0 -18 6
-18 12 0 5 -5 7 -12 3 -7 -4 -8 -3 -4 5 6 9 11 9 22 0 8 -6 17 -9 21 -5 3 3 1
6 -6 6 -7 0 -9 5 -5 12 4 6 3 8 -3 5 -6 -4 -19 1 -29 9 -10 9 -14 13 -8 10 18
-9 12 57 -6 72 -13 10 -13 11 2 6 15 -5 16 -2 8 28 -6 18 -17 39 -27 45 -9 7
-14 15 -11 18 3 4 15 -6 27 -21 12 -15 23 -25 26 -22 3 2 -5 15 -18 29 -12 13
-21 27 -19 32 1 5 -2 6 -8 2 -6 -4 -19 -1 -28 7 -15 12 -16 11 -4 -4 10 -12
10 -18 1 -24 -8 -4 -9 -3 -5 4 4 7 2 12 -5 12 -6 0 -9 8 -6 20 3 10 2 19 -2
18 -22 -3 -41 4 -36 12 4 6 10 8 15 5 5 -3 11 -1 15 4 3 6 -3 8 -13 6 -11 -2
-24 6 -31 18 -11 18 -11 20 0 10 21 -20 38 -16 34 8 -6 30 -10 32 -34 20 -14
-8 -22 -8 -27 1 -4 6 -3 8 3 5 6 -4 16 0 23 8 11 13 10 14 -3 9 -9 -3 -24 1
-32 10 -13 12 -21 14 -38 5 -19 -8 -20 -8 -7 3 8 7 16 20 18 28 3 12 1 12 -9
3 -9 -9 -15 -8 -27 3 -8 8 -21 13 -29 10 -8 -3 -12 -2 -8 3 3 5 -1 16 -9 24
-8 8 -12 18 -8 22 4 5 2 5 -5 1 -6 -3 -14 -2 -18 4 -4 6 -10 8 -15 5 -4 -3
-20 9 -34 26 -14 17 -26 27 -26 22 0 -5 6 -15 13 -23 10 -12 9 -12 -6 0 -11 8
-16 21 -13 33 4 15 2 17 -7 8 -13 -13 -28 -15 -26 -3 3 18 -2 32 -12 32 -5 0
-7 -5 -3 -11 3 -6 -8 -4 -24 5 -17 9 -34 22 -38 28 -5 10 -4 10 6 1 7 -6 19
-9 28 -6 11 5 13 3 7 -7 -5 -9 -4 -11 4 -6 15 10 3 29 -14 22 -8 -3 -15 0 -17
6 -3 7 -15 4 -33 -8 -16 -10 -26 -14 -23 -8 4 6 1 11 -6 11 -8 0 -13 -5 -12
-11 2 -6 1 -8 -1 -3 -3 4 -9 4 -15 1 -6 -4 -5 2 1 15 9 17 9 20 -3 15 -8 -3
-17 -13 -19 -22 -4 -15 -5 -15 -6 1 0 9 -6 17 -12 17 -5 0 -7 6 -3 13 6 9 5 9
-7 0 -10 -8 -19 -9 -29 -1 -13 8 -12 9 2 4 12 -3 15 -1 11 10 -3 8 -8 13 -11
10 -2 -3 -14 -1 -25 5 -12 7 -17 7 -13 1 3 -5 -1 -12 -9 -15 -10 -4 -12 -1 -8
10 5 12 3 14 -8 8 -12 -7 -12 -6 -1 7 11 14 10 16 -7 11 -13 -3 -21 -1 -21 7
0 7 -6 10 -14 7 -8 -3 -21 0 -29 6 -19 15 -56 74 -41 64 7 -4 15 0 18 9 3 8 2
12 -3 9 -5 -3 -12 -1 -15 4 -7 11 13 9 33 -3 10 -6 12 -5 7 3 -4 6 0 14 8 17
9 3 16 11 16 16 0 6 -7 5 -15 -2 -9 -7 -18 -10 -22 -6 -3 3 -1 6 5 6 7 0 12 7
12 16 0 8 -3 13 -8 11 -10 -7 -32 19 -24 27 3 4 -2 4 -12 0 -13 -5 -17 -4 -13
3 4 7 0 10 -10 9 -10 -2 -18 -10 -18 -19 0 -8 -4 -19 -8 -24 -5 -4 -8 -3 -7 2
4 20 0 35 -11 35 -5 0 -7 -4 -4 -10 3 -6 -1 -7 -9 -4 -9 3 -13 11 -9 17 3 6 1
7 -5 3 -9 -5 -7 -15 4 -34 11 -19 12 -22 2 -10 -8 10 -18 14 -22 10 -4 -4 -13
-7 -19 -7 -7 -1 -11 -6 -10 -12 2 -8 -5 -7 -22 1 -14 6 -25 15 -25 19 0 5 -5
5 -10 2 -6 -4 -8 -11 -5 -16 4 -5 1 -9 -4 -9 -6 0 -11 4 -11 9 0 5 -14 7 -32
6 -22 -2 -37 4 -51 19 -10 11 -15 15 -11 7 5 -11 3 -13 -10 -8 -12 5 -15 3
-11 -6 4 -6 -1 -3 -9 7 -15 18 -16 18 -16 2 0 -9 -5 -14 -10 -11 -6 4 -8 10
-5 15 3 5 0 12 -6 16 -8 4 -9 3 -5 -4 4 -7 2 -12 -5 -12 -9 0 -9 -3 0 -14 9
-11 9 -16 0 -22 -7 -4 -9 -3 -5 4 3 6 1 14 -5 17 -5 4 -8 13 -5 20 6 17 -26
14 -42 -5 -8 -8 -11 -9 -7 -2 8 15 0 15 -28 0 -21 -11 -21 -10 -7 8 8 10 10
16 6 12 -5 -4 -16 -2 -24 5 -13 9 -14 9 -8 -1 5 -8 0 -12 -13 -12 -12 0 -21
-6 -21 -12 -1 -7 -7 -2 -16 12 -8 15 -13 18 -12 8 2 -9 -1 -17 -7 -17 -5 0 -9
8 -7 17 2 14 1 14 -6 3 -6 -8 -15 -10 -22 -6 -9 5 -11 4 -6 -3 4 -7 1 -12 -9
-12 -9 0 -14 4 -11 9 4 5 -2 8 -11 6 -10 -1 -26 2 -37 7 -13 7 -16 7 -11 -1 4
-8 -2 -10 -19 -7 -14 3 -26 0 -26 -5 0 -5 -5 -9 -11 -9 -5 0 -7 4 -4 10 4 6
-1 7 -11 3 -12 -4 -15 -3 -10 5 4 7 2 12 -3 12 -14 0 -14 -13 -1 -26 7 -7 6
-11 -4 -11 -8 0 -13 4 -10 8 7 12 -19 17 -48 8 -15 -4 -30 -4 -33 1 -7 11 -78
0 -87 -14 -5 -7 -8 -3 -9 9 0 11 -3 14 -6 8 -5 -15 -24 -18 -20 -4 1 5 -2 9
-8 9 -5 0 -9 -4 -8 -8 4 -13 -26 -20 -33 -8 -4 7 -3 8 4 4 17 -10 15 -1 -4 14
-12 11 -15 11 -12 0 4 -17 -41 -23 -59 -8 -10 8 -13 5 -13 -8 0 -16 -2 -16 -9
-4 -6 8 -7 18 -4 24 3 5 1 6 -6 2 -6 -4 -9 -12 -6 -17 4 -5 1 -9 -4 -9 -6 0
-11 5 -11 11 0 5 -5 7 -10 4 -6 -4 -18 -1 -26 6 -12 10 -15 10 -12 -2 4 -17
-38 -14 -62 4 -8 7 -6 1 5 -12 l20 -23 -30 13 c-17 7 -34 16 -39 21 -6 4 -15
8 -20 8 -6 0 -4 -5 4 -11 11 -8 6 -9 -22 -7 -20 2 -34 0 -31 -5 3 -5 -3 -7
-13 -3 -11 3 -32 7 -47 10 -25 4 -27 3 -15 -11 12 -15 11 -15 -9 -4 -13 6 -23
17 -23 24 0 9 -2 9 -8 -1 -5 -7 -16 -10 -25 -6 -10 3 -17 1 -17 -6 0 -6 4 -8
10 -5 5 3 10 1 10 -4 0 -6 -7 -11 -16 -11 -9 0 -12 -5 -8 -12 4 -7 3 -8 -5 -4
-6 4 -9 12 -6 17 4 5 3 9 -2 10 -4 0 -16 2 -25 4 -10 2 -21 -1 -24 -7 -4 -6
-10 -5 -16 3 -8 11 -9 11 -5 -1 4 -17 26 -21 45 -7 9 7 11 5 6 -7 -4 -10 -12
-15 -19 -12 -7 2 -18 -1 -25 -7 -10 -9 -11 -9 -5 2 5 9 3 12 -6 9 -8 -3 -13
-11 -11 -17 1 -7 -2 -10 -8 -6 -6 3 -8 10 -5 15 3 4 -2 11 -11 14 -8 3 -12 2
-9 -4 3 -6 1 -10 -5 -10 -6 0 -8 -6 -4 -13 4 -6 -2 -4 -13 6 -11 10 -27 15
-36 11 -9 -3 -22 -2 -29 2 -7 4 -21 9 -30 9 -13 1 -15 -2 -7 -11 7 -8 7 -14
-1 -19 -7 -4 -14 2 -17 14 -3 11 -9 18 -14 15 -5 -3 -7 -9 -4 -14 3 -5 0 -12
-6 -16 -7 -4 -9 -3 -5 4 3 6 2 13 -4 17 -5 3 -10 -2 -11 -12 -1 -13 -3 -11 -9
7 -4 14 -8 18 -9 9 -1 -21 -50 -13 -69 10 -11 14 -11 14 -6 -2 7 -19 -12 -24
-19 -4 -3 7 -6 6 -6 -5 -1 -9 -6 -20 -11 -23 -6 -4 -9 -1 -8 6 2 8 -7 14 -19
15 -14 1 -23 -4 -23 -13 0 -8 -4 -12 -10 -8 -5 3 -7 13 -4 23 3 9 -2 6 -11 -8
l-16 -25 7 24 c4 16 3 21 -5 17 -6 -4 -11 -15 -12 -24 0 -14 -2 -13 -9 3 -5
11 -9 14 -9 8 -1 -9 -8 -10 -27 -2 -15 5 -29 7 -32 4 -3 -2 -11 0 -19 7 -11 9
-12 7 -7 -8 5 -18 5 -18 -10 0 -14 17 -16 18 -16 3 0 -9 -4 -17 -9 -17 -5 0
-7 10 -4 22 5 22 5 22 -10 4 -13 -18 -16 -18 -30 -4 -9 9 -14 18 -12 22 3 3
-1 1 -7 -4 -10 -9 -10 -13 1 -19 9 -6 -6 -8 -38 -7 -28 2 -51 -1 -51 -6 0 -4
-5 -8 -10 -8 -7 0 -7 7 1 21 8 15 13 18 19 10 5 -10 9 -9 13 2 8 22 -26 14
-52 -12 -19 -19 -51 -19 -51 0 0 5 -5 9 -11 9 -5 0 -7 -5 -3 -12 5 -7 2 -9 -9
-5 -12 4 -15 1 -11 -11 3 -9 -2 -6 -11 8 -9 14 -14 17 -11 7 5 -15 3 -16 -17
-5 -32 18 -48 18 -54 2 -3 -10 -10 -11 -22 -4 -12 6 -22 5 -29 -2 -7 -7 -12
-8 -12 -4 0 5 -7 3 -15 -4 -8 -7 -15 -9 -15 -6 0 11 55 55 128 104 35 24 69
47 75 53 7 6 46 35 87 65 41 30 82 60 90 67 8 7 33 26 55 42 22 16 42 32 45
35 3 3 36 29 74 59 38 29 78 61 90 71 11 10 64 53 116 96 52 43 97 81 100 84
7 8 94 85 190 170 93 81 507 492 610 606 36 39 92 101 125 139 33 37 65 73 70
79 6 6 30 36 55 66 25 30 47 57 50 60 3 3 35 41 70 85 36 44 67 82 71 85 3 3
18 23 35 45 16 22 34 45 39 51 6 6 18 22 28 35 10 13 63 85 118 159 306 412
653 982 876 1440 189 388 387 864 472 1135 13 39 26 79 31 90 41 94 218 727
254 910 1 6 5 24 9 40 4 17 9 41 12 55 2 14 14 70 25 125 37 182 84 456 95
555 2 19 6 50 10 68 3 18 7 50 10 70 10 98 16 141 21 182 3 24 7 68 9 97 2 29
7 82 10 118 19 181 30 488 30 810 0 281 -10 618 -19 675 -3 14 -7 68 -11 120
-4 52 -8 109 -10 125 -9 93 -27 249 -36 310 -5 39 -12 88 -14 110 -3 22 -8 58
-12 80 -3 22 -7 47 -9 55 -35 240 -115 638 -164 820 -6 19 -17 64 -26 100 -14
60 -71 260 -109 390 -27 92 -112 350 -143 435 -72 196 -102 278 -115 308 -33
73 -117 277 -117 281 0 3 -18 44 -41 93 -22 48 -52 113 -66 143 -54 117 -155
321 -219 440 -115 215 -123 233 -117 243 3 6 1 7 -5 3 -11 -6 -16 6 -13 27 0
4 -4 7 -9 7 -6 0 -10 5 -10 11 0 5 4 8 8 5 5 -3 9 1 9 9 0 8 -5 11 -10 8 -6
-4 -8 1 -4 11 4 10 7 20 7 23 0 3 8 -1 18 -8 15 -12 15 -11 -1 8 -13 15 -15
23 -7 28 8 5 3 15 -16 32 -19 16 -22 21 -8 14 16 -8 21 -7 21 4 0 8 -4 12 -8
9 -4 -2 -10 2 -13 8 -3 9 -9 7 -20 -6 -9 -11 -16 -15 -16 -9 0 7 7 19 16 28
15 15 15 17 -2 31 -11 9 -14 13 -8 10 7 -3 12 4 11 19 0 14 -3 23 -7 20 -16
-10 -2 36 16 51 10 8 14 13 8 10 -7 -3 -18 2 -25 11 -12 15 -12 16 4 10 12 -4
16 -3 11 4 -4 6 -1 15 6 19 8 5 7 9 -5 13 -10 5 -14 3 -9 -5 4 -6 3 -8 -3 -5
-11 7 -11 36 1 55 13 22 -3 27 -20 6 -14 -18 -15 -18 -4 4 7 15 7 22 0 22 -5
0 -10 5 -10 11 0 8 4 8 14 0 10 -8 16 -9 21 -1 9 14 -3 30 -18 24 -7 -2 -13 4
-14 16 -1 12 2 18 9 14 7 -4 8 -2 4 5 -4 6 -12 9 -17 6 -5 -4 -9 -1 -9 4 0 6
6 11 13 11 8 0 7 4 -3 10 -12 8 -12 10 -1 10 11 0 11 3 0 17 -12 14 -12 16 1
11 11 -4 16 2 17 24 0 20 -2 26 -7 17 -5 -7 -6 -17 -3 -23 3 -5 1 -6 -5 -2
-13 8 -4 38 15 49 7 4 13 13 13 20 0 7 -4 6 -10 -3 -10 -16 -17 -13 -20 10 -5
32 0 51 12 44 7 -4 8 -3 4 5 -6 9 -11 9 -22 0 -15 -12 -18 -5 -14 39 1 12 -4
22 -12 22 -10 0 -9 3 2 11 11 7 12 12 3 15 -7 3 -9 12 -6 20 3 7 10 11 17 8 6
-3 2 2 -9 11 -19 15 -19 17 -2 29 16 12 16 14 2 20 -9 3 -13 10 -10 16 4 6 10
8 14 6 13 -8 6 31 -8 48 -12 14 -11 16 3 10 9 -3 16 -1 16 5 0 6 -4 11 -10 11
-5 0 -10 5 -10 11 0 5 3 8 8 6 6 -4 7 24 3 71 0 7 -6 10 -12 7 -14 -10 12 37
31 52 13 11 13 12 -3 7 -15 -5 -17 -2 -13 20 3 15 1 24 -5 21 -5 -4 -6 -12 -3
-18 4 -7 3 -8 -2 -4 -5 5 -10 13 -10 18 -1 5 -2 14 -3 20 0 5 -5 8 -10 5 -10
-7 -9 20 2 30 11 11 8 44 -3 44 -6 0 -10 8 -8 18 2 10 -2 16 -11 14 -12 -3
-12 0 -1 12 15 19 24 21 14 4 -4 -7 -3 -8 4 -4 17 10 15 24 -5 29 -15 4 -15 5
2 6 17 1 18 3 5 11 -13 9 -13 10 0 10 9 1 6 6 -10 16 -14 8 -17 13 -8 10 10
-3 20 -1 23 4 4 6 1 10 -6 10 -8 0 -8 4 -1 13 6 6 10 17 9 22 -2 16 -21 33
-31 27 -5 -3 -6 0 -2 7 6 9 11 9 22 0 13 -11 13 -9 3 14 -7 15 -15 24 -19 22
-4 -3 -10 4 -13 16 -5 17 -3 18 10 7 15 -12 15 -10 3 12 l-13 25 23 -20 23
-20 -14 23 c-15 24 -35 29 -42 10 -4 -10 -6 -10 -6 -1 -1 6 4 15 9 18 5 3 10
14 10 23 0 15 -2 15 -10 2 -5 -8 -10 -10 -10 -4 0 5 5 15 12 22 9 9 9 12 -2
12 -11 0 -11 3 -2 12 16 16 15 31 0 22 -9 -5 -9 -2 1 9 9 12 10 17 2 17 -7 0
-9 5 -6 10 4 6 11 7 17 4 7 -4 8 -2 4 4 -4 7 -1 12 6 12 10 0 9 3 -1 9 -12 7
-12 13 -3 24 13 16 6 28 -12 21 -7 -3 -13 2 -13 10 0 8 6 12 14 9 11 -4 11 0
4 21 -8 20 -7 27 5 34 14 8 14 10 -2 16 -10 4 -21 1 -26 -6 -5 -8 -6 1 -3 22
4 19 11 38 18 42 7 5 8 8 2 8 -6 0 -17 -6 -24 -12 -10 -11 -11 -9 -5 6 4 12 4
17 -2 13 -6 -3 -10 7 -9 24 0 16 4 29 8 29 5 0 5 5 2 10 -4 6 -1 18 6 26 7 8
8 14 3 13 -19 -3 -28 2 -16 9 13 9 27 56 14 49 -4 -2 -20 10 -37 26 l-30 31
40 -23 c35 -20 38 -21 22 -4 -9 11 -14 23 -10 28 5 4 2 5 -4 1 -7 -4 -13 -2
-13 4 0 6 -5 8 -11 4 -6 -3 -3 6 7 22 11 15 14 25 7 21 -7 -5 -16 1 -23 13
-11 20 -10 21 12 9 20 -11 21 -10 11 3 -7 8 -10 18 -6 21 3 4 0 7 -8 7 -11 0
-11 2 1 10 11 7 11 10 2 10 -7 0 -10 5 -7 10 4 6 12 7 18 3 7 -4 6 0 -2 10
-15 18 -26 23 -16 7 10 -16 -1 -11 -16 7 -10 11 -10 14 -1 9 7 -4 12 -2 12 4
0 6 5 8 12 4 7 -4 8 -3 4 4 -4 6 -13 9 -20 6 -8 -3 -17 0 -22 7 -4 8 -3 10 4
5 7 -4 12 -2 12 4 0 6 5 8 12 4 7 -4 8 -3 4 5 -4 6 -13 8 -19 5 -8 -5 -8 -3 1
7 17 19 15 34 -3 19 -20 -17 -32 -5 -15 15 10 12 10 15 -1 15 -11 0 -11 3 1
11 11 8 12 12 3 16 -7 2 -13 9 -13 15 0 6 -10 19 -22 29 -11 11 -17 19 -12 19
6 0 15 -5 22 -12 9 -9 12 -8 12 6 0 9 4 15 9 11 5 -3 3 8 -5 25 -9 16 -17 30
-19 30 -7 0 1 -36 10 -42 6 -5 6 -8 -1 -8 -6 0 -18 8 -25 17 -12 14 -12 16 0
8 11 -6 13 -4 8 8 -3 8 1 21 8 27 8 7 12 16 9 21 -8 14 -25 0 -18 -14 4 -7 3
-9 -1 -4 -15 13 -12 44 3 43 8 -1 16 6 17 15 2 9 -3 16 -11 16 -11 0 -11 -3
-1 -16 11 -14 10 -14 -6 -2 -12 10 -15 17 -7 25 14 14 13 29 -2 20 -7 -4 -8
-3 -4 4 4 7 14 12 22 12 8 0 12 5 9 10 -4 6 -10 8 -14 5 -5 -2 -17 2 -27 10
-10 8 -14 15 -7 15 7 0 11 12 10 30 -2 33 -6 36 -27 18 -8 -7 -4 0 10 16 14
16 20 26 14 23 -7 -4 -17 0 -24 8 -11 13 -10 14 6 9 18 -7 18 -6 2 12 -9 10
-18 24 -20 29 -2 6 -7 9 -12 7 -5 -2 -4 4 4 12 8 11 9 16 1 16 -6 0 -11 5 -11
11 0 6 5 7 13 2 22 -14 36 -12 30 5 -5 11 -3 13 7 7 9 -5 11 -4 6 4 -6 9 -11
9 -24 -1 -13 -11 -15 -11 -10 3 5 13 2 16 -15 12 -17 -4 -19 -2 -8 5 19 14 24
45 6 38 -9 -3 -12 0 -8 9 3 8 9 12 14 9 5 -3 9 0 9 5 0 6 -7 11 -16 11 -8 0
-12 5 -9 10 4 6 10 8 14 6 4 -3 8 1 8 9 0 8 -3 14 -6 13 -24 -2 -29 6 -27 42
3 44 -7 71 -17 45 -5 -10 -3 -14 5 -9 7 4 8 3 4 -5 -11 -17 -25 -4 -19 18 3
10 -1 22 -8 27 -9 5 -10 2 -5 -12 6 -15 5 -17 -5 -6 -11 10 -10 16 5 30 11 9
16 11 12 5 -4 -7 -3 -13 2 -13 6 0 12 6 15 14 4 10 -3 13 -29 11 -19 -1 -32 1
-28 4 3 3 10 6 15 6 5 0 9 2 10 5 2 10 -26 65 -36 72 -6 5 -6 8 2 8 7 0 16 -8
22 -17 9 -16 10 -16 8 4 0 12 -4 21 -7 21 -20 -2 -30 4 -30 20 0 14 2 15 10 2
5 -8 12 -11 15 -8 4 4 -3 15 -14 25 -12 9 -21 21 -21 26 0 5 7 4 15 -3 19 -16
20 -3 1 15 -7 8 -17 11 -21 7 -5 -4 -5 1 -2 11 4 9 2 17 -3 17 -6 0 -10 -5
-10 -12 0 -6 -3 -8 -7 -4 -4 4 2 15 14 24 17 13 20 20 12 32 -9 12 -10 12 -5
-4 5 -13 2 -17 -8 -13 -8 3 -17 1 -19 -6 -3 -7 -4 -2 -4 10 1 12 4 20 8 17 4
-2 9 3 12 11 4 9 1 12 -7 9 -18 -7 -30 12 -15 22 8 5 9 3 4 -7 -8 -12 -6 -12
8 0 18 15 23 26 7 16 -9 -6 -14 8 -11 28 1 5 -2 6 -7 3 -5 -3 -16 11 -25 30
-10 19 -21 33 -26 29 -5 -3 -12 -1 -15 4 -11 16 26 5 39 -12 7 -9 16 -17 20
-17 5 0 -2 11 -15 25 -13 14 -20 28 -17 32 4 3 2 12 -4 20 -9 10 -8 17 2 30
13 15 11 15 -13 -1 -20 -13 -28 -14 -34 -5 -5 8 -3 9 5 4 9 -5 12 0 9 16 -2
17 1 23 12 21 12 -2 11 1 -2 11 -10 8 -14 18 -10 22 4 5 2 5 -4 2 -6 -4 -10
-17 -9 -30 2 -14 -2 -24 -11 -24 -7 0 -11 4 -8 8 2 4 0 10 -6 14 -5 3 -10 11
-10 18 0 6 6 2 14 -9 13 -17 14 -16 12 19 -2 20 -6 40 -11 45 -4 4 -5 1 0 -7
5 -9 4 -12 -3 -7 -6 4 -8 14 -5 23 5 12 3 14 -7 8 -8 -5 -11 -4 -7 2 8 13 -17
36 -28 25 -5 -4 -5 -1 -1 6 4 7 12 10 17 7 5 -4 9 3 9 14 0 11 -5 23 -11 27
-6 3 -9 17 -6 30 2 14 0 27 -6 31 -5 3 -7 2 -4 -4 3 -5 0 -10 -8 -10 -12 0
-12 5 0 33 12 29 12 34 -3 46 -12 10 -14 10 -8 1 4 -8 2 -13 -5 -13 -7 0 -9 8
-6 21 5 20 5 20 -15 2 -21 -18 -21 -18 -9 4 15 29 14 33 -6 26 -15 -5 -14 -3
2 10 17 13 18 18 6 29 -8 8 -11 8 -7 1 3 -6 3 -14 -2 -17 -4 -2 -8 6 -8 19 0
13 3 22 6 20 4 -2 7 2 7 9 0 9 -7 12 -16 8 -14 -5 -14 -4 -2 11 12 16 12 17
-5 11 -16 -6 -17 -5 -6 7 18 20 15 34 -5 18 -10 -9 -14 -9 -10 -2 4 7 9 33 11
58 2 35 -1 48 -14 55 -10 5 -19 7 -22 5 -2 -2 -4 8 -5 23 -1 15 1 20 4 12 7
-17 23 -30 38 -30 6 1 2 5 -7 11 -10 5 -18 17 -18 24 0 8 -5 15 -12 15 -9 0
-9 3 0 12 15 15 15 28 1 28 -5 0 -7 -4 -4 -10 3 -6 -1 -7 -10 -4 -14 6 -14 8
2 21 17 14 17 14 1 9 -10 -3 -17 -2 -17 2 1 4 1 18 0 32 -1 20 -3 22 -11 10
-7 -12 -9 -10 -7 7 1 18 4 20 20 11 10 -5 21 -7 25 -4 3 3 0 6 -7 6 -7 0 -9 5
-5 12 4 6 3 8 -2 5 -14 -8 -38 9 -30 22 4 6 12 8 18 5 7 -5 8 -2 4 5 -6 9 -13
8 -27 -5 -19 -17 -20 -17 -13 1 5 12 4 16 -4 11 -6 -3 -13 -2 -17 4 -4 6 -11
7 -17 4 -7 -4 -8 -2 -4 5 6 9 11 9 22 0 11 -9 14 -9 14 0 0 7 4 9 10 6 6 -3 7
1 4 9 -3 9 -10 16 -16 16 -5 0 -6 -5 -2 -11 4 -8 0 -8 -15 0 -25 14 -27 19 -5
17 26 -2 28 22 2 34 -21 10 -21 10 -5 -3 19 -16 23 -32 5 -20 -7 4 -16 8 -20
9 -5 1 -11 2 -15 3 -5 1 2 10 14 20 19 16 20 20 7 25 -8 3 -12 2 -9 -4 3 -6 1
-10 -5 -10 -6 0 -10 6 -8 14 2 8 -6 22 -17 30 -20 14 -20 15 4 24 l25 9 -23 6
c-15 4 -20 10 -15 18 5 8 3 10 -6 4 -10 -6 -12 -4 -7 8 6 16 -467 17 -6883 17
-4233 0 -6891 -4 -6895 -9z m13789 -50 c-5 -5 -33 30 -34 43 0 4 9 -2 19 -15
11 -13 17 -26 15 -28z m-13777 -97 c-3 -3 -12 -4 -19 -1 -8 3 -5 6 6 6 11 1
17 -2 13 -5z m13960 -369 c0 -8 -4 -12 -9 -9 -4 3 -8 9 -8 15 0 5 4 9 8 9 5 0
9 -7 9 -15z m83 -250 c-7 -9 -15 -13 -19 -10 -3 3 1 10 9 15 21 14 24 12 10
-5z m-14200 -25 c0 -5 -2 -10 -4 -10 -3 0 -8 5 -11 10 -3 6 -1 10 4 10 6 0 11
-4 11 -10z m14317 -325 c1 -11 -17 -8 -30 4 -4 4 0 7 10 6 10 0 19 -5 20 -10z
m202 -598 c-2 -1 -13 -9 -24 -17 -19 -14 -19 -14 -6 3 7 9 18 17 24 17 6 0 8
-1 6 -3z m-14662 -182 c0 -8 -4 -12 -9 -9 -4 3 -8 9 -8 15 0 5 4 9 8 9 5 0 9
-7 9 -15z m59 -700 c-1 -8 -5 -17 -8 -21 -5 -4 -4 16 1 34 3 9 9 -1 7 -13z
m14824 -440 c-6 -8 -8 -20 -4 -27 5 -10 4 -10 -6 -1 -11 10 -11 15 0 28 7 8
15 15 17 15 3 0 0 -7 -7 -15z m30 -515 c0 -5 -2 -10 -4 -10 -3 0 -8 5 -11 10
-3 6 -1 10 4 10 6 0 11 -4 11 -10z m21 -213 c-10 -9 -11 -8 -5 6 3 10 9 15 12
12 3 -3 0 -11 -7 -18z m9 -101 c0 -3 -4 -8 -10 -11 -5 -3 -10 -1 -10 4 0 6 5
11 10 11 6 0 10 -2 10 -4z m-17000 -1645 c-5 -10 -17 -21 -27 -25 -17 -6 -17
-5 0 8 10 7 17 18 16 22 -3 18 1 25 11 19 7 -4 7 -12 0 -24z m-703 -257 c-10
-10 -47 -12 -47 -2 0 5 7 7 15 4 10 -3 18 1 22 11 5 12 8 13 11 4 2 -7 2 -14
-1 -17z m-101 -46 c3 -4 -1 -5 -10 -4 -8 1 -18 5 -22 8 -3 4 1 5 10 4 8 -1 18
-5 22 -8z m199 -1170 c5 4 5 2 1 -5 -8 -14 -36 -6 -36 9 0 7 5 6 13 -1 8 -6
18 -7 22 -3z m16575 -10504 c0 -8 -19 -13 -24 -6 -3 5 1 9 9 9 8 0 15 -2 15
-3z m224 -3 c-9 -9 -34 -9 -34 -1 0 5 9 8 20 7 10 -1 17 -3 14 -6z m366 -21
c0 -5 -5 -10 -11 -10 -5 0 -7 5 -4 10 3 6 8 10 11 10 2 0 4 -4 4 -10z m290 0
c0 -5 -2 -10 -4 -10 -3 0 -8 5 -11 10 -3 6 -1 10 4 10 6 0 11 -4 11 -10z
m-2560 -5 c0 -2 -7 -8 -15 -15 -12 -10 -15 -10 -15 2 0 8 7 15 15 15 8 0 15
-1 15 -2z m784 -11 c3 -8 2 -12 -4 -9 -6 3 -10 10 -10 16 0 14 7 11 14 -7z
m46 -4 c0 -5 -5 -10 -11 -10 -5 0 -7 5 -4 10 3 6 8 10 11 10 2 0 4 -4 4 -10z
m2255 -360 c3 -5 1 -10 -4 -10 -6 0 -11 5 -11 10 0 6 2 10 4 10 3 0 8 -4 11
-10z m200 -140 c3 -5 1 -10 -4 -10 -6 0 -11 5 -11 10 0 6 2 10 4 10 3 0 8 -4
11 -10z m-5177 -522 c-2 -7 3 -12 10 -10 6 1 12 -5 12 -15 0 -14 -2 -14 -20 2
-11 10 -17 22 -14 26 8 13 14 11 12 -3z m595 -73 c-3 -9 -8 -14 -10 -11 -3 3
-2 9 2 15 9 16 15 13 8 -4z m43 -12 c-4 -4 -12 -1 -19 7 -9 10 -9 11 1 6 7 -4
12 -2 13 6 0 11 2 11 6 0 3 -7 2 -16 -1 -19z m565 -76 c-6 -8 -7 -18 -3 -22 4
-5 1 -5 -6 -1 -10 6 -10 11 -1 22 6 8 14 14 16 14 3 0 0 -6 -6 -13z m277 -52
c-3 -3 -9 2 -12 12 -6 14 -5 15 5 6 7 -7 10 -15 7 -18z m442 -89 c0 -3 -4 -8
-10 -11 -5 -3 -10 -1 -10 4 0 6 5 11 10 11 6 0 10 -2 10 -4z m120 -38 c0 -6
-6 -5 -15 2 -8 7 -15 14 -15 16 0 2 7 1 15 -2 8 -4 15 -11 15 -16z m3320 8 c0
-2 -7 -6 -15 -10 -8 -3 -15 -1 -15 4 0 6 7 10 15 10 8 0 15 -2 15 -4z m-3188
-43 c-6 -2 -9 -10 -6 -15 4 -7 2 -8 -5 -4 -13 9 -5 26 12 25 9 0 8 -2 -1 -6z
m61 -18 c-3 -9 -8 -14 -10 -11 -3 3 -2 9 2 15 9 16 15 13 8 -4z m246 -83 c0
-14 -2 -13 -9 3 -5 11 -9 14 -9 7 -1 -7 -6 -10 -12 -6 -8 4 -7 9 2 15 17 10
29 2 28 -19z m2797 -40 c-18 -16 -18 -16 -6 6 6 13 14 21 18 18 3 -4 -2 -14
-12 -24z"/>
<path d="M17010 19119 c0 -5 5 -7 10 -4 6 3 10 8 10 11 0 2 -4 4 -10 4 -5 0
-10 -5 -10 -11z"/>
<path d="M17036 19098 c3 -5 10 -6 15 -3 13 9 11 12 -6 12 -8 0 -12 -4 -9 -9z"/>
<path d="M3081 18844 c0 -11 3 -14 6 -6 3 7 2 16 -1 19 -3 4 -6 -2 -5 -13z"/>
<path d="M3080 18721 c0 -6 4 -13 10 -16 6 -3 7 1 4 9 -7 18 -14 21 -14 7z"/>
<path d="M17184 18649 c-4 -7 -3 -9 4 -5 5 3 13 0 15 -6 4 -9 6 -10 6 -1 1 17
-16 25 -25 12z"/>
<path d="M17230 18499 c0 -5 5 -7 10 -4 6 3 10 8 10 11 0 2 -4 4 -10 4 -5 0
-10 -5 -10 -11z"/>
<path d="M17297 18287 c-9 -23 8 -30 24 -10 8 9 9 14 2 10 -6 -4 -13 -2 -15 5
-3 8 -7 6 -11 -5z"/>
<path d="M2960 18159 c0 -5 5 -7 10 -4 6 3 10 8 10 11 0 2 -4 4 -10 4 -5 0
-10 -5 -10 -11z"/>
<path d="M2937 18099 c7 -7 15 -10 18 -7 3 3 -2 9 -12 12 -14 6 -15 5 -6 -5z"/>
<path d="M2892 17801 c2 -7 7 -12 11 -12 12 1 9 15 -3 20 -7 2 -11 -2 -8 -8z"/>
<path d="M2890 17640 c0 -5 5 -10 11 -10 5 0 7 5 4 10 -3 6 -8 10 -11 10 -2 0
-4 -4 -4 -10z"/>
<path d="M17595 17310 c3 -5 8 -10 11 -10 2 0 4 5 4 10 0 6 -5 10 -11 10 -5 0
-7 -4 -4 -10z"/>
<path d="M17605 17280 c3 -5 11 -10 16 -10 6 0 7 5 4 10 -3 6 -11 10 -16 10
-6 0 -7 -4 -4 -10z"/>
<path d="M17655 17150 c-4 -6 -11 -7 -17 -4 -7 4 -8 2 -4 -5 6 -9 11 -9 22 0
14 11 18 19 10 19 -3 0 -8 -5 -11 -10z"/>
<path d="M2870 16946 c0 -2 7 -7 16 -10 8 -3 12 -2 9 4 -6 10 -25 14 -25 6z"/>
<path d="M17676 16902 c-2 -4 -1 -14 4 -22 7 -11 9 -9 7 8 -1 24 -3 26 -11 14z"/>
<path d="M2923 16733 c9 -2 17 -9 17 -14 0 -6 -5 -7 -12 -3 -7 4 -8 3 -4 -5 6
-9 11 -9 22 0 12 10 12 14 2 20 -7 5 -20 8 -28 8 -11 -1 -10 -3 3 -6z"/>
<path d="M17755 16361 c-6 -11 13 -26 22 -17 4 3 1 6 -6 6 -7 0 -9 5 -6 10 3
6 4 10 1 10 -3 0 -7 -4 -11 -9z"/>
<path d="M17779 16293 c-13 -16 -12 -17 4 -4 9 7 17 15 17 17 0 8 -8 3 -21
-13z"/>
<path d="M17820 15606 c0 -2 7 -7 16 -10 8 -3 12 -2 9 4 -6 10 -25 14 -25 6z"/>
<path d="M17855 15120 c-3 -6 1 -7 9 -4 18 7 21 14 7 14 -6 0 -13 -4 -16 -10z"/>
<path d="M17907 14769 c7 -7 15 -10 18 -7 3 3 -2 9 -12 12 -14 6 -15 5 -6 -5z"/>
<path d="M17907 14649 c7 -7 15 -10 18 -7 3 3 -2 9 -12 12 -14 6 -15 5 -6 -5z"/>
<path d="M673 13638 c-2 -16 1 -18 10 -9 7 7 8 14 1 21 -6 6 -10 2 -11 -12z"/>
<path d="M605 13639 c-4 -6 -5 -12 -2 -15 2 -3 7 2 10 11 7 17 1 20 -8 4z"/>
<path d="M561 13611 c-8 -5 -9 -11 -3 -15 5 -3 12 1 16 9 6 17 6 18 -13 6z"/>
<path d="M222 13473 c5 -7 14 -10 19 -7 16 10 9 23 -10 21 -15 -1 -17 -4 -9
-14z"/>
<path d="M181 13464 c0 -11 3 -14 6 -6 3 7 2 16 -1 19 -3 4 -6 -2 -5 -13z"/>
<path d="M146 12216 c4 -9 12 -15 18 -13 6 2 17 -3 24 -12 11 -13 11 -12 2 7
-7 13 -14 21 -17 18 -4 -3 -12 -1 -20 6 -11 8 -12 7 -7 -6z"/>
<path d="M246 12142 c-3 -5 1 -9 9 -9 8 0 12 4 9 9 -3 4 -7 8 -9 8 -2 0 -6 -4
-9 -8z"/>
<path d="M306 12142 c-3 -5 1 -9 9 -9 8 0 12 4 9 9 -3 4 -7 8 -9 8 -2 0 -6 -4
-9 -8z"/>
<path d="M16595 1720 c-3 -5 -1 -10 4 -10 6 0 11 5 11 10 0 6 -2 10 -4 10 -3
0 -8 -4 -11 -10z"/>
<path d="M15256 1696 c6 -15 4 -17 -6 -11 -9 6 -11 4 -5 -4 5 -9 10 -10 18 -2
8 8 7 14 -2 24 -10 10 -11 8 -5 -7z"/>
<path d="M16035 1690 c3 -5 8 -10 11 -10 2 0 4 5 4 10 0 6 -5 10 -11 10 -5 0
-7 -4 -4 -10z"/>
<path d="M17470 1689 c0 -5 5 -7 10 -4 6 3 10 8 10 11 0 2 -4 4 -10 4 -5 0
-10 -5 -10 -11z"/>
<path d="M17553 1685 c0 -8 4 -12 9 -9 4 3 8 9 8 15 0 5 -4 9 -8 9 -5 0 -9 -7
-9 -15z"/>
<path d="M17740 1545 c0 -7 30 -13 34 -7 3 4 -4 9 -15 9 -10 1 -19 0 -19 -2z"/>
<path d="M18567 716 c-3 -8 0 -20 8 -26 12 -10 13 -8 10 10 -6 29 -11 34 -18
16z"/>
<path d="M13740 561 c0 -6 4 -13 10 -16 6 -3 7 1 4 9 -7 18 -14 21 -14 7z"/>
<path d="M13708 543 c7 -3 16 -2 19 1 4 3 -2 6 -13 5 -11 0 -14 -3 -6 -6z"/>
<path d="M14100 519 c0 -6 6 -9 13 -6 6 2 21 0 32 -6 15 -7 17 -7 9 2 -14 15
-54 22 -54 10z"/>
<path d="M14667 423 c3 -7 6 -13 8 -13 2 0 5 6 8 13 3 8 -1 14 -8 14 -7 0 -11
-6 -8 -14z"/>
<path d="M14870 395 c0 -2 6 -8 13 -14 10 -8 14 -7 14 2 0 8 -6 14 -14 14 -7
0 -13 -1 -13 -2z"/>
<path d="M14920 360 c-9 -6 -10 -10 -3 -10 6 0 15 5 18 10 8 12 4 12 -15 0z"/>
<path d="M15555 200 c-3 -5 -1 -10 4 -10 6 0 11 5 11 10 0 6 -2 10 -4 10 -3 0
-8 -4 -11 -10z"/>
<path d="M18560 190 c-8 -5 -12 -12 -9 -15 4 -3 12 1 19 10 14 17 11 19 -10 5z"/>
<path d="M15735 130 c-4 -6 -4 -14 -1 -17 3 -4 6 0 6 8 0 12 2 12 10 -1 5 -8
12 -12 15 -9 3 4 -1 12 -9 18 -10 9 -16 9 -21 1z"/>
<path d="M15853 67 c0 -8 6 -14 14 -14 9 0 10 4 2 14 -6 7 -12 13 -14 13 -1 0
-2 -6 -2 -13z"/>
</g>
</svg>
